<?xml version="1.0" encoding="iso-8859-1"?>
<!-- Generator: Adobe Illustrator 19.0.0, SVG Export Plug-In . SVG Version: 6.00 Build 0)  -->
<svg version="1.1" id="Capa_1" xmlns="http://www.w3.org/2000/svg" xmlns:xlink="http://www.w3.org/1999/xlink" x="0px" y="0px"
	 viewBox="0 0 512 512" style="enable-background:new 0 0 512 512;" xml:space="preserve">
<g>
	<rect x="7.5" y="48" style="fill:#78BAEC;" width="497" height="295.71"/>
	<polygon style="fill:#78BAEC;" points="324,417.202 188,417.202 205.859,343.706 306.141,343.706 	"/>
	<polygon style="fill:#78BAEC;" points="371,464 141,464 156.268,417.202 355.732,417.202 	"/>
</g>
<rect x="7.5" y="48" style="fill:#016EF1;" width="47.75" height="295.71"/>
<rect x="37" y="79.72" style="fill:#FEDA44;" width="438" height="232.27"/>
<rect x="37" y="79.72" style="fill:#FF9911;" width="61.48" height="232.27"/>
<g>
	<polygon style="fill:#016EF1;" points="205.859,343.706 188,417.202 215.333,417.202 233.192,343.706 	"/>
	<polygon style="fill:#016EF1;" points="156.268,417.202 141,464 168.333,464 183.601,417.202 	"/>
</g>
<path d="M512,351.206V40.5H0v310.706h196.318l-14.214,58.497h-31.279L130.664,471.5h250.672l-20.161-61.798h-31.279l-14.214-58.497
	H512V351.206z M15,336.206V55.5h420.5v11h15v-11H497v280.706H15z M350.29,424.702l10.374,31.798H151.336l10.374-31.798H350.29z
	 M314.459,409.702H197.541l7.662-31.536H246v-15h-37.152l2.906-11.961h88.492L314.459,409.702z"/>
<path d="M482.5,72.219h-453v247.268h453V72.219z M467.5,304.487h-380V278h-15v26.487h-28V130.5H108v-15H44.5V87.219h423V304.487z"/>
<g>
	<rect x="275.83" y="376.33" style="fill:#FFFFFF;" width="15" height="28.333"/>
	<rect x="275.83" y="355" style="fill:#FFFFFF;" width="15" height="15.667"/>
	<rect x="311.75" y="433.1" style="fill:#FFFFFF;" width="26.5" height="15"/>
	<rect x="173.75" y="433.1" style="fill:#FFFFFF;" width="125.5" height="15"/>
	<rect x="435.5" y="149.67" style="fill:#FFFFFF;" width="15" height="131.33"/>
	<rect x="435.5" y="102.33" style="fill:#FFFFFF;" width="15" height="32.667"/>
</g>
<polygon points="187.339,254.613 202.339,254.613 202.339,137.092 187.339,137.092 187.339,193.255 141.523,193.255 
	151.713,138.463 136.965,135.721 123.477,208.255 187.339,208.255 "/>
<polygon points="372,254.613 387,254.613 387,137.092 372,137.092 372,193.255 326.185,193.255 336.374,138.463 321.626,135.721 
	308.138,208.255 372,208.255 "/>
<path d="M294.669,135.831h-77.338v120.044h77.338V135.831z M279.669,240.875h-47.338v-90.044h47.338V240.875z"/>
<g>
</g>
<g>
</g>
<g>
</g>
<g>
</g>
<g>
</g>
<g>
</g>
<g>
</g>
<g>
</g>
<g>
</g>
<g>
</g>
<g>
</g>
<g>
</g>
<g>
</g>
<g>
</g>
<g>
</g>
</svg>
