<?xml version="1.0" standalone="no"?>
<!DOCTYPE svg PUBLIC "-//W3C//DTD SVG 20010904//EN"
 "http://www.w3.org/TR/2001/REC-SVG-20010904/DTD/svg10.dtd">
<svg version="1.0" xmlns="http://www.w3.org/2000/svg"
 width="112.000000pt" height="112.000000pt" viewBox="0 0 112.000000 112.000000"
 preserveAspectRatio="xMidYMid meet">
<metadata>
Created by potrace 1.14, written by Peter Selinger 2001-2017
</metadata>
<g transform="translate(0.000000,112.000000) scale(0.100000,-0.100000)"
fill="#000000" stroke="none">
<path d="M735 953 c-16 -8 -38 -22 -48 -31 -12 -11 -42 -16 -95 -18 -42 -1
-105 -9 -140 -19 -55 -16 -64 -16 -80 -3 -56 48 -172 95 -172 70 0 -5 -36 -28
-79 -53 l-79 -44 15 -35 c9 -19 19 -73 22 -120 6 -80 8 -85 29 -88 14 -2 33 5
46 17 l21 20 18 -94 c9 -52 27 -118 40 -147 18 -41 21 -59 14 -79 -6 -14 -7
-41 -3 -60 6 -30 15 -38 74 -67 37 -17 94 -37 127 -43 33 -5 74 -14 90 -19 17
-4 51 -11 78 -15 l47 -6 0 51 0 50 43 -7 c23 -5 82 -8 132 -8 l90 0 20 32 c11
18 27 32 35 33 9 0 34 19 55 42 22 23 34 39 28 34 -23 -13 -15 28 12 64 14 19
25 39 25 46 0 20 -49 53 -89 60 -67 11 -68 12 -75 62 -3 26 -20 71 -36 101
-17 30 -30 55 -30 55 0 1 18 0 40 -2 l40 -4 -16 37 c-8 21 -14 58 -13 82 l3
45 -64 39 c-72 43 -82 45 -125 22z"/>
</g>
</svg>
